# xmcd
#
# Track frame offsets: 
#        150
#        22140
#        40407
#        61625
#        77647
#        101047
#        120957
#        141110
#        159500
#        181657
#
# Disc length: 2696 seconds
#
# Revision: 0
# Processed by: cddbd v1.5.2PL0 Copyright (c) Steve Scherf et al.
# Submitted via: ExactAudioCopy v0.99pb3
#
DISCID=760a860a
DTITLE=Billy Thompson and The Mighty Penguins - Coat Of Many Colors
DYEAR=1992
DGENRE=Blues
TTITLE0=My Shadow Cries
TTITLE1=Coat Of Many Colors
TTITLE2=The Boxer
TTITLE3=Take Care Of Your Homework
TTITLE4=Fruit Of My Labor
TTITLE5=Out Of Sight, Out Of Mind
TTITLE6=The Big Mistake
TTITLE7=Since You're Gone
TTITLE8=This World
TTITLE9=Peace and Understanding (Is Hard To Find)
EXTD=
EXTT0=
EXTT1=
EXTT2=
EXTT3=
EXTT4=
EXTT5=
EXTT6=
EXTT7=
EXTT8=
EXTT9=
PLAYORDER=
